<svg width="41" height="41" viewBox="0 0 41 41" fill="none" xmlns="http://www.w3.org/2000/svg">
<path d="M11.6071 15.6105C11.9359 16.1754 11.1967 16.9453 11.2091 17.1002C11.2461 17.6127 14.423 18.3376 15.0311 18.3876C18.1857 18.645 20.2129 16.7703 22.9447 16.7253C24.3415 16.7028 25.6098 17.5027 26.9274 17.6602C27.9411 17.7801 29.0214 17.6302 30.0449 17.6852C30.2946 17.4627 28.967 16.3404 29.3898 15.6105C29.4664 15.478 31.6074 13.7732 31.7804 13.6758C32.7668 13.1133 33.3206 13.6183 32.6012 14.5056C32.3762 14.7831 30.5344 16.0079 30.5221 16.1529L37.7212 26.9988C38.2032 27.2387 39.6619 25.414 40.2132 25.2565C40.7249 25.109 41.1279 25.4965 40.9622 26.0164C40.9029 26.2014 38.1909 28.3461 37.9684 28.4186C37.1031 28.7035 37.1575 28.0986 36.6779 27.5762C36.2947 28.4111 34.6161 28.896 34.2304 29.3334C33.5926 30.0558 34.6136 31.4331 33.0561 32.6179C32.7446 32.8554 31.7483 33.1928 31.7112 33.2578C31.4936 33.6228 31.8249 34.6901 31.0734 35.555C30.0251 36.7623 28.5418 36.1949 28.4256 36.2799C28.2204 36.4299 28.1636 38.4621 26.6209 38.8195C26.1858 38.9195 25.4144 38.7645 25.1895 38.9045C25.098 38.9595 24.7494 40.1693 23.9707 40.6142C21.4614 42.0465 19.5751 39.0245 18.5318 39.0895C18.339 39.102 17.6418 41.3816 15.3624 40.6467C14.5861 40.3968 14.5342 39.6519 14.2103 39.4444C13.8074 39.187 12.3784 40.2418 11.1794 38.757C10.952 38.4771 10.7319 37.7597 10.685 37.7297C10.4649 37.5947 9.86665 37.7497 9.49582 37.6397C6.98898 36.8948 7.95068 34.9151 7.68615 34.6401C7.56501 34.5126 5.77512 34.6626 5.41418 33.0529C5.08785 31.5931 6.33385 30.4783 6.19046 30.1583C6.12618 30.0133 4.22999 27.8636 4.08413 27.8086C3.88882 27.7337 4.06435 28.7535 3.02601 28.4161C2.66507 28.2986 1.54934e-05 26.0764 1.54934e-05 25.8114C-0.00740117 24.0392 2.65024 26.9138 3.02354 27.0113C3.39685 27.1088 3.52046 26.6813 3.69351 26.4738C6.14596 23.5493 8.06934 19.2274 10.4723 16.1554C10.46 16.0104 8.62065 14.7856 8.39321 14.5081C7.67379 13.6208 8.22509 13.1183 9.21398 13.6783C9.38704 13.7757 11.528 15.4805 11.6046 15.613L11.6071 15.6105ZM30.925 18.675C29.773 18.6025 28.7989 18.925 27.5974 18.8575C25.3749 18.73 24.0968 17.5727 21.6468 18.0276C20.7642 18.1901 16.2128 19.7224 15.6195 20.1698C15.1992 20.4872 13.2017 23.3193 13.2833 23.6743C15.7036 25.8139 17.3946 22.2495 18.9768 21.6621C19.7728 21.3671 21.9336 21.907 22.9274 21.6996L32.8484 28.4011C33.4492 28.8035 36.1365 27.0063 36.0722 26.5513L30.925 18.6775V18.675ZM14.6751 19.3349C13.1967 19.3774 11.8543 18.6675 10.4773 18.2576C9.81226 19.3974 4.80107 26.2489 4.92962 26.9213C4.96424 27.1063 6.71704 29.4484 6.87526 29.4459C7.78257 28.1511 9.06565 26.8938 10.7047 27.9311C11.2758 28.2936 11.5997 29.1609 11.664 29.2084C11.7851 29.2984 13.125 28.2261 14.5293 29.2409C15.4786 29.9283 15.2338 31.3306 15.3995 31.5381C15.5503 31.7281 17.3006 31.6006 17.6517 33.1454C17.753 33.5878 17.5948 34.3527 17.7357 34.5901C17.8099 34.7126 18.8903 34.9051 19.3006 35.4775C20.1931 36.7223 19.3056 37.8871 19.4366 38.1671C19.847 39.037 23.4812 40.7017 23.9583 39.177C24.3934 37.7897 20.7518 36.5173 20.0299 35.68C19.3723 34.9176 19.983 34.5576 20.8013 34.8751C22.0819 35.37 24.9126 38.1946 26.0819 37.8272C26.2946 37.7597 26.6234 37.5122 26.7865 37.3422C28.7396 35.315 23.0609 33.3453 22.114 32.158C21.5355 31.4331 22.3489 31.1856 23.0436 31.4531C24.4453 31.9905 27.5801 35.0676 28.8113 35.295C30.2575 35.5625 31.1302 33.8402 30.1611 32.7329L23.7259 28.3911C23.4243 27.5387 23.9188 27.3812 24.6703 27.6912C26.2946 28.3636 29.7384 31.7031 31.1376 31.9955C32.8163 32.3455 33.6371 30.5732 32.349 29.3409C31.6296 28.6535 22.9991 22.7844 22.4156 22.6619C22.208 22.6169 19.4094 22.6194 19.2561 22.6669C18.3266 22.9469 17.3946 25.1215 15.1473 25.339C14.4378 25.4065 12.1065 24.7641 11.8988 24.1117C11.5824 23.1193 14.3092 20.4522 14.6677 19.3274L14.6751 19.3349ZM10.4303 29.041C9.87901 28.4835 9.0162 28.721 8.49704 29.2084C8.28937 29.4034 6.62062 31.5881 6.5786 31.7406C6.14101 33.2528 7.47107 34.2527 8.75168 32.9929C9.48593 32.268 11.3994 30.0158 10.4328 29.041H10.4303ZM12.1831 30.2333C11.9408 30.4308 8.80359 34.5876 8.71707 34.8651C8.42287 35.81 9.32029 36.7798 10.3215 36.4774C10.811 36.3299 14.0917 32.113 14.2721 31.5056C14.6455 30.2508 13.214 29.3959 12.1856 30.2333H12.1831ZM14.5095 33.0579C14.3068 33.2228 11.748 36.6973 11.6887 36.9323C11.4192 38.0196 12.8605 38.827 13.7431 38.2796C13.9557 38.1471 16.6776 34.4702 16.7295 34.2227C16.9619 33.0979 15.5008 32.2555 14.5095 33.0579ZM17.1721 35.8524C16.3587 36.0949 13.9582 39.2294 16.0472 39.6969C16.9842 39.9068 18.7444 37.4372 18.643 36.6523C18.5466 35.9249 17.8396 35.655 17.1721 35.8549V35.8524Z" fill="#2E5054"/>
<path d="M32.1043 4.53461C32.8756 5.76193 29.4293 15.638 27.8199 16.9778C27.5158 17.0527 27.0684 16.5728 27.1129 16.2629C27.1747 15.8404 28.9275 12.9934 29.2859 12.0985C29.637 11.2261 31.2761 5.92191 30.9547 5.46448C28.4553 5.16452 26.8286 2.98235 24.6851 2.03249C22.4181 1.02764 19.449 0.870161 17.1103 1.67004C14.5812 2.53491 12.7814 5.00455 10.0224 5.21451C10.2424 8.42904 11.2906 11.5286 12.6924 14.3956C12.9396 14.9031 14.9693 17.5877 13.392 17.2202C12.858 17.0952 12.3735 16.0179 12.0743 15.4905C10.727 13.1108 8.75662 7.77163 8.83573 5.09203C8.86787 4.03969 10.7814 4.09718 11.8073 3.60725C15.5033 1.84252 16.5219 -0.397151 21.5158 0.0602812C25.5084 0.427727 26.4429 2.48242 29.417 3.83972C29.9979 4.10468 32.0276 4.41713 32.1043 4.53461Z" fill="#2E5054"/>
<path d="M24.1363 7.58166C24.4626 7.52417 25.0955 8.13158 24.8162 8.50152L19.4168 13.9007C19.1647 13.9457 16.1881 10.9887 16.109 10.7012C16.0521 10.4912 15.9928 10.2913 16.1881 10.1513C16.9446 9.06144 18.737 12.3734 19.4168 12.2535C20.2623 11.751 23.6295 7.66915 24.1363 7.58166Z" fill="#2E5054"/>
</svg>
