<svg width="37" height="40" viewBox="0 0 37 40" fill="none" xmlns="http://www.w3.org/2000/svg">
<path d="M35.928 39.7992C35.8112 39.916 35.4844 40 35.3093 40L0.779978 39.9533C0.350404 39.8202 0.296707 39.5938 0.261688 39.1783C0.656242 33.4938 -1.60135 26.2592 5.13408 23.6165C7.17455 22.8158 9.41114 22.2905 11.468 21.5014C11.6944 21.331 12.675 18.7094 12.6423 18.4012C9.54421 14.0241 10.3613 8.566 10.275 3.50015C10.4594 2.05509 11.7154 1.38976 12.9388 0.906521C15.8874 -0.256059 20.1738 -0.300414 23.1528 0.773454C24.6096 1.29872 25.9801 1.93136 26.1272 3.65889C26.2999 5.67356 26.2346 8.85081 26.1272 10.9052C26.0081 13.235 25.4221 15.3524 24.3575 17.4114C24.2338 17.6519 23.8112 18.1865 23.7598 18.3545C23.6408 18.7467 24.6703 21.0112 24.9201 21.5014C27.0657 22.3582 29.475 22.8368 31.5996 23.7005C38.1202 26.3572 35.6361 33.6782 36.1288 39.1783C36.1288 39.351 36.0447 39.6802 35.928 39.7969V39.7992ZM24.7474 6.98555V3.4091C24.7474 3.18966 24.2221 2.78112 24.0283 2.66206C21.3061 0.990562 14.7761 0.892513 12.1683 2.81147C12.0329 2.91185 11.6454 3.36475 11.6454 3.49548V6.89917C12.3318 6.71008 12.9761 6.34123 13.6695 6.12179C17.0944 5.03858 21.5583 5.29537 24.7474 6.98555ZM24.7334 8.63604C24.2034 8.39092 23.7061 8.06175 23.1668 7.83064C20.3092 6.6097 16.0625 6.60503 13.1979 7.80262C12.9598 7.90067 11.8462 8.44695 11.7294 8.57534C11.6431 8.67106 11.6524 8.71541 11.6384 8.8298C11.0897 13.3587 13.7419 21.8213 19.7676 19.8043C23.7715 18.4619 25.0696 12.3362 24.731 8.6337L24.7334 8.63604ZM22.6766 19.7412C22.4011 19.6899 22.303 19.9397 22.1022 20.0727C19.2096 21.994 16.373 22.0057 13.7139 19.6572C13.7209 20.2198 12.6726 21.8983 12.7613 22.2695C12.8501 22.6407 15.0073 23.1823 15.4205 23.2523C17.9723 23.6959 21.3622 23.5908 23.6338 22.2718C23.4166 21.4104 22.8236 20.64 22.6789 19.7436L22.6766 19.7412ZM1.64613 30.041V38.618H12.1613V31.5071C12.1613 29.2636 14.4516 27.333 16.3567 26.565L19.2283 24.8281C17.6174 24.8538 15.9855 24.7978 14.4166 24.4242C13.4384 24.1908 12.1777 23.7706 11.587 22.9255C9.6306 23.6632 7.41736 24.1418 5.50062 24.9355C3.48816 25.7689 1.85625 27.8443 1.64379 30.0434L1.64613 30.041ZM34.7466 29.6979C34.7466 27.5478 32.6571 25.5868 30.8034 24.8491C28.9497 24.1114 26.8019 23.6282 24.8805 22.9325C23.384 23.8803 21.8945 24.8444 20.3769 25.7596C18.8594 26.6747 15.1333 28.4886 14.2625 29.7305C14.0384 30.0504 13.5411 31.0682 13.5411 31.4231V38.6203H34.7466V29.6979Z" fill="#2E5054"/>
<path d="M18.1941 32.4012C18.5718 32.4012 18.8781 32.095 18.8781 31.7172C18.8781 31.3394 18.5718 31.0332 18.1941 31.0332C17.8163 31.0332 17.51 31.3394 17.51 31.7172C17.51 32.095 17.8163 32.4012 18.1941 32.4012Z" fill="#2E5054"/>
<path d="M18.1941 37.229C18.5718 37.229 18.8781 36.9227 18.8781 36.5449C18.8781 36.1672 18.5718 35.8609 18.1941 35.8609C17.8163 35.8609 17.51 36.1672 17.51 36.5449C17.51 36.9227 17.8163 37.229 18.1941 37.229Z" fill="#2E5054"/>
<path d="M16.3637 15.6232C16.8703 15.5742 17.566 16.3936 18.2407 16.3889C18.9155 16.3842 19.4501 15.5461 20.2205 15.6932C20.8042 15.8053 20.7201 16.5897 20.2602 16.9352C19.6439 17.3997 18.6073 17.8433 17.8322 17.7359C17.4563 17.6845 16.0555 16.9795 15.8804 16.6714C15.6306 16.2395 15.8477 15.6699 16.366 15.6209L16.3637 15.6232Z" fill="#2E5054"/>
</svg>
