<svg width="51" height="50" viewBox="0 0 51 50" fill="none" xmlns="http://www.w3.org/2000/svg">
<path d="M34.7242 33.5885C37.0874 33.4432 40.1015 33.4662 42.478 33.5675C46.9066 33.7586 50.2222 36.7465 50.4589 41.2559C50.5907 43.7677 50.354 46.3942 50.4589 48.9175C50.4208 49.3687 50.2661 49.772 49.8004 49.9116C42.6269 50.0893 35.4095 49.9345 28.2208 49.9899C27.5183 49.9708 27.1499 49.6095 27.0888 48.9175C26.8598 46.2662 27.2148 43.2134 27.1594 40.5314C27.6939 36.5821 30.771 33.8313 34.7242 33.5885ZM48.5005 48.0248V40.7665C48.5005 38.2738 45.5055 35.523 43.0278 35.5269C38.6622 36.0239 32.4336 33.86 29.8128 38.53C29.5169 39.0576 29.0492 40.2389 29.0492 40.8277V48.0248H31.0669V41.686C31.0669 41.6631 31.1719 41.3744 31.1967 41.3247C31.5078 40.6729 32.468 40.6251 32.8536 41.2444C32.8822 41.2922 33.0235 41.6038 33.0235 41.6248V48.0267H44.5224V41.6879C44.5224 41.6554 44.6408 41.3419 44.6713 41.2865C44.9633 40.7417 45.7364 40.6346 46.1755 41.0743C46.2595 41.1584 46.479 41.5407 46.479 41.6287V48.0306H48.4966L48.5005 48.0248Z" fill="#DEDCD1"/>
<path d="M7.68912 33.5885C10.749 33.3381 14.1754 33.6745 17.2563 33.6478C21.158 34.3111 23.7216 37.4671 23.9125 41.3763C24.0327 43.8327 23.8151 46.3866 23.9125 48.8545C23.8514 49.6191 23.5479 49.9307 22.7805 49.988H1.55214C0.971852 49.9364 0.633984 49.6114 0.544268 49.036C0.649255 46.4535 0.40683 43.7639 0.542359 41.1928C0.748516 37.2702 3.71106 33.9135 7.68912 33.5866V33.5885ZM2.50275 40.7054V48.0248H4.52042V41.6229C4.52042 41.535 4.73993 41.1527 4.82392 41.0686C5.27441 40.6193 6.07804 40.7551 6.3491 41.3228C6.37391 41.3725 6.4789 41.6611 6.4789 41.6841V48.0229H17.9778V41.621C17.9778 41.5331 18.1974 41.1508 18.2814 41.0666C18.7204 40.6289 19.4935 40.7359 19.7855 41.2788C19.8161 41.3343 19.9344 41.6478 19.9344 41.6803V48.0191H21.9521V40.7608C21.9521 40.3288 21.5722 39.2449 21.3718 38.8301C20.3868 36.7751 18.3653 35.5823 16.1129 35.46C13.3145 35.307 10.3081 35.5173 7.50205 35.5402C5.00336 35.8939 2.74518 38.1629 2.50085 40.6996L2.50275 40.7054Z" fill="#DEDCD1"/>
<path d="M14.5362 0.0172043L36.299 0C36.761 0.0420549 37.097 0.248506 37.2573 0.693906C37.3699 6.01768 37.2707 11.3644 37.3069 16.6977C37.3069 17.1431 36.9213 17.5923 36.4804 17.6459L28.9232 17.6745L26.2604 22.6026C25.8538 23.0824 25.1494 23.071 24.739 22.6026C23.8266 20.9606 23.0058 19.2592 22.0342 17.6535L14.3663 17.6153C13.9883 17.4547 13.7001 17.1259 13.6925 16.6977V1.01123C13.7402 0.475985 14.0055 0.133811 14.5362 0.0172043ZM35.4095 1.9632H15.5918L15.6834 15.7457H22.9008C23.105 15.7457 23.3971 16.0765 23.5078 16.2409C24.111 17.1508 24.5558 18.3302 25.1227 19.2784L25.5293 19.9111L27.5279 16.1529C27.6004 16.0057 27.9573 15.7438 28.0986 15.7438H35.316L35.4076 1.96129L35.4095 1.9632Z" fill="#DEDCD1"/>
<path d="M44.2284 26.9763C44.2284 29.9909 41.7889 32.4339 38.7787 32.4339C35.7684 32.4339 33.3289 29.9909 33.3289 26.9763C33.3289 23.9618 35.7684 21.5187 38.7787 21.5187C41.7889 21.5187 44.2284 23.9618 44.2284 26.9763ZM42.3119 26.9782C42.3119 25.0303 40.7352 23.4494 38.7882 23.4494C36.8412 23.4494 35.2645 25.0284 35.2645 26.9782C35.2645 28.9281 36.8412 30.507 38.7882 30.507C40.7352 30.507 42.3119 28.9281 42.3119 26.9782Z" fill="#DEDCD1"/>
<path d="M17.682 26.9744C17.682 29.9928 15.2386 32.4396 12.2246 32.4396C9.21047 32.4396 6.76714 29.9928 6.76714 26.9744C6.76714 23.956 9.21047 21.5092 12.2246 21.5092C15.2386 21.5092 17.682 23.956 17.682 26.9744ZM15.7559 26.9763C15.7559 25.0227 14.1735 23.438 12.2226 23.438C10.2718 23.438 8.68936 25.0227 8.68936 26.9763C8.68936 28.93 10.2718 30.5147 12.2226 30.5147C14.1735 30.5147 15.7559 28.93 15.7559 26.9763Z" fill="#DEDCD1"/>
<path d="M19.5527 3.93787L31.2807 3.92449C32.5672 3.99904 32.6646 5.74814 31.3418 5.88387H19.6615C18.4322 5.75961 18.4035 4.19594 19.5527 3.93978V3.93787Z" fill="#DEDCD1"/>
<path d="M31.2921 7.86618C32.5577 7.91206 32.6379 9.62676 31.4047 9.80262H19.5985C18.4856 9.6841 18.4073 8.13954 19.4744 7.9025C23.3761 8.05352 27.4114 7.72282 31.2921 7.86618Z" fill="#DEDCD1"/>
<path d="M19.4286 11.8385L31.4639 11.8251C32.5882 11.9952 32.5443 13.6009 31.4028 13.7233H19.5966C18.5161 13.6067 18.3902 12.1214 19.4267 11.8385H19.4286Z" fill="#DEDCD1"/>
</svg>
