<svg width="39" height="42" viewBox="0 0 39 42" fill="none" xmlns="http://www.w3.org/2000/svg">
<path d="M29.2379 20.1433C29.2379 27.0011 23.693 32.5581 16.8552 32.5581C10.0174 32.5581 4.47245 26.9989 4.47245 20.1433C4.47245 13.2878 10.0174 7.72851 16.8552 7.72851C23.693 7.72851 29.2379 13.2878 29.2379 20.1433ZM28.3138 20.1455C28.3138 13.8 23.1821 8.65505 16.853 8.65505C10.5239 8.65505 5.39216 13.8 5.39216 20.1455C5.39216 26.491 10.5239 31.636 16.853 31.636C23.1821 31.636 28.3138 26.491 28.3138 20.1455Z" fill="#2E5054"/>
<path d="M7.88692 7.02692C7.93135 7.06924 8.68667 6.96901 9.04878 7.34542C10.0796 8.41005 7.81361 9.79542 7.11161 10.4458C6.32297 11.1763 5.1589 12.9648 4.03259 12.2476L0.358197 8.83546C-0.44155 7.77751 0.191583 7.1071 1.33344 6.95342C1.46896 5.11369 1.12462 2.95992 1.32678 1.16029C1.40009 0.50547 1.5978 0.140198 2.2887 0.0600158C2.97959 -0.0201659 6.89835 -0.0379841 7.38042 0.120152C7.74919 0.240425 7.84694 0.541106 7.88914 0.899697C7.99356 1.78838 7.66699 6.81533 7.88914 7.02692H7.88692ZM6.98721 0.964288H2.35534V7.09151C2.35534 7.7931 1.42897 7.95346 0.940235 8.12274L4.60574 11.5171L8.27347 8.12051C7.8536 7.90446 6.98721 7.86883 6.98721 7.21846V0.964288Z" fill="#2E5054"/>
<path d="M37.6042 22.375C37.6997 22.4664 39.6946 22.3194 38.7438 23.8406C37.953 24.3573 35.436 27.2528 34.8095 27.3819C34.6473 27.4154 34.5185 27.4154 34.3541 27.3819C33.6654 27.2394 31.3239 24.3751 30.4709 23.9163C29.4534 22.2704 31.435 22.4931 31.5572 22.375C31.7549 22.1857 31.4617 17.6911 31.5528 16.8893C31.6216 16.2924 31.926 15.9895 32.5169 15.9226C33.1589 15.8491 36.4801 15.8313 36.9644 15.9828C37.3665 16.1097 37.5575 16.4884 37.6042 16.8893C37.6975 17.6911 37.402 22.1857 37.5997 22.375H37.6042ZM36.7045 22.698V17.0229C36.7045 17.0095 36.5245 16.8291 36.5112 16.8291H32.6524C32.6391 16.8291 32.4591 17.0095 32.4591 17.0229V22.8272C32.4591 22.8539 32.137 23.1813 32.0704 23.2125C31.7949 23.3395 31.3662 23.139 31.4306 23.4709C31.8371 23.8339 34.3563 26.3797 34.5807 26.3797C35.6604 25.4865 36.7111 24.462 37.7308 23.4709C37.8596 23.1702 37.3065 23.3239 37.0866 23.217C36.9933 23.1724 36.72 22.7893 36.7022 22.7002L36.7045 22.698Z" fill="#2E5054"/>
<path d="M20.6229 35.7899C23.0732 35.5739 22.9533 37.0082 21.3338 38.2444C20.0297 39.0774 18.7968 40.8926 17.5994 41.7233C16.6619 42.3737 16.1799 41.7523 15.4756 41.1443C14.3427 40.1687 12.772 38.7299 11.7435 37.663C10.5216 36.3957 11.5324 35.5137 13.0342 35.7899C12.872 33.1105 14.1249 34.0214 15.7933 34.1172C16.4575 34.1551 17.3262 34.1529 17.9904 34.1172C19.6365 34.0281 20.8428 33.1127 20.6229 35.7899ZM19.721 34.7587C18.3592 35.0571 16.8108 35.0972 15.4156 35.0148C15.1224 34.997 14.2871 34.7386 14.1361 34.7765C13.6362 34.8968 14.4137 36.4848 13.2186 36.6875C12.9076 36.7409 12.5366 36.6162 12.2611 36.7588L16.9552 41.0797L21.5226 36.7588C19.972 36.7899 19.5543 36.3133 19.721 34.7609V34.7587Z" fill="#2E5054"/>
<path d="M15.0913 10.7019C15.1269 10.575 15.3934 10.4124 15.5445 10.3834C15.8266 10.33 18.1459 10.33 18.3525 10.399C18.7657 10.5349 18.4813 11.9225 18.5635 12.3145C19.1833 12.3345 21.6826 12.7399 21.9736 13.2165C22.1668 13.535 21.3738 16.7534 21.1383 16.8982C20.7784 17.1187 19.6521 16.544 19.1589 16.426C18.6657 16.308 15.9799 15.8714 16.1288 16.749C16.2309 17.3503 18.9479 18.0853 19.5499 18.357C23.3198 20.052 24.0907 24.6446 20.4518 26.7895C20.0919 27.0011 18.6746 27.451 18.6213 27.5334C18.3414 27.9566 18.8612 29.3085 18.3014 29.7919C17.886 30.1504 14.9602 30.0636 14.9602 29.6671V27.7962C14.0183 27.6403 13.0342 27.5534 12.1322 27.2127C11.7213 27.0568 10.9793 26.7806 10.9593 26.3151C10.946 25.9966 11.5347 23.5355 11.6768 23.1501C11.7302 23.0054 11.7924 22.8294 11.959 22.7782C12.2611 22.6846 14.2005 23.5288 14.8003 23.6335C15.3379 23.727 18.0881 23.9965 17.6038 22.8962C17.3573 22.3372 14.5004 21.5844 13.7562 21.199C9.3709 18.925 10.6305 13.5996 15.0913 12.5728C15.1802 12.0628 14.9691 11.1429 15.0913 10.7019ZM15.991 13.1541C14.2183 13.8112 12.1856 14.5573 11.999 16.7601C11.8123 18.9629 13.1564 19.9384 15.0047 20.7224C16.1754 21.2213 19.3433 21.7514 18.468 23.7626C17.7549 25.4019 13.6784 24.4152 12.3899 23.923C12.5343 24.4709 11.7568 25.8273 12.1278 26.1837C12.3211 26.3708 13.5607 26.6625 13.9006 26.7271C14.5115 26.8452 15.3668 26.7383 15.8622 27.0835V28.9544H17.535V27.0835C17.535 26.6269 18.9812 26.4621 19.4255 26.2705C20.4318 25.834 21.5137 24.7805 21.7225 23.6713C22.1513 21.3906 21.2671 20.1767 19.2944 19.2569C18.1237 18.7112 14.9314 18.1922 15.2468 16.4104C15.58 14.5328 19.3766 15.5351 20.6207 15.7979L21.0183 13.8156C20.9317 13.3835 18.2792 13.3256 17.9193 13.1541C17.4594 12.9359 17.7349 11.7354 17.6638 11.281H15.991V13.1541Z" fill="#2E5054"/>
<path d="M26.2655 24.5466C26.1523 24.6179 25.7479 24.589 25.6346 24.511C25.257 24.2526 26.0145 22.7359 26.1189 22.2726C26.4055 21.003 26.4633 19.7602 26.25 18.4773C26.1922 18.1276 25.2059 15.1587 26.4899 16.1721C27.0364 16.6042 27.3474 19.7424 27.3119 20.5041C27.283 21.11 26.6832 24.286 26.2655 24.5466Z" fill="#2E5054"/>
<path d="M7.22713 20.424C7.05385 20.5309 6.56734 20.464 6.48959 20.2302C6.27188 19.5709 6.85836 15.8848 7.45817 15.6865C8.71555 15.2723 7.69143 17.3436 7.5648 17.9895C7.48261 18.415 7.33154 20.3594 7.22713 20.424Z" fill="#2E5054"/>
<path d="M24.0063 26.2861C24.3017 26.0389 24.7571 26.0879 24.8527 26.4665C24.9815 26.9766 23.4909 28.3085 23.0599 27.9967C22.4423 27.5512 23.4398 26.9788 23.6553 26.7694C23.8085 26.6202 23.9085 26.3708 24.0063 26.2884V26.2861Z" fill="#2E5054"/>
<path d="M6.60066 4.76847C6.5118 5.05133 5.70095 5.0981 5.70095 4.63928V1.54561C5.70095 1.28279 6.60066 1.28279 6.60066 1.54561C6.60066 2.18261 6.72951 4.36088 6.60066 4.77069V4.76847Z" fill="#2E5054"/>
<path d="M5.84535 6.87992C5.64319 6.75519 5.50768 5.38987 6.22523 5.5391C6.94278 5.68833 6.66509 7.38774 5.84535 6.87992Z" fill="#2E5054"/>
<path d="M33.8742 17.602V19.9874C33.8742 20.2124 33.2211 20.3015 33.039 19.9228C32.8301 19.493 32.7146 16.8291 33.8742 17.602Z" fill="#2E5054"/>
<path d="M33.3211 20.8471C34.2008 20.5977 33.9365 22.5354 33.6676 22.6223C32.7746 22.914 32.7391 21.0097 33.3211 20.8471Z" fill="#2E5054"/>
<path d="M15.8799 38.9036C16.1199 38.5294 16.7263 39.0528 16.9285 39.0016C17.2062 38.9326 17.4861 38.2711 17.8615 38.2332C18.3147 38.1887 18.628 38.6943 18.3036 39.0751C18.2081 39.1887 17.0374 40.1687 16.9507 40.1776C16.4531 40.2311 15.5756 39.378 15.8799 38.9014V38.9036Z" fill="#2E5054"/>
<path d="M18.9145 37.2287C19.9786 36.9325 19.4521 38.7678 18.6191 38.1218C18.2636 37.8457 18.548 37.3312 18.9145 37.2287Z" fill="#2E5054"/>
</svg>
