<svg width="43" height="40" viewBox="0 0 43 40" fill="none" xmlns="http://www.w3.org/2000/svg">
<path d="M15.2651 0.0548754C17.4531 -0.320394 19.1571 1.3508 21.2745 1.38333C24.0447 1.42336 26.026 -1.17851 28.8466 0.697836C30.4296 1.75109 31.0321 4.10528 32.4689 5.05096C34.1376 6.14925 37.1473 5.92659 38.3799 7.67784C39.7209 9.58421 38.6647 12.1911 39.2117 14.2526C39.7663 16.3441 42.6474 17.5824 42.3828 20.3744C42.1735 22.591 39.5344 24.0721 39.1462 25.9509C38.7278 27.9599 39.6881 30.4617 38.3824 32.318C37.1473 34.0718 34.1401 33.8491 32.4714 34.9449C31.0321 35.8931 30.4271 38.2473 28.8491 39.298C26.0512 41.1593 24.2161 38.6751 21.5517 38.61C19.0336 38.5475 16.6137 41.0793 14.0955 39.4556C12.4621 38.4024 11.653 35.8305 10.3598 34.9424C8.67853 33.7891 5.83771 34.1618 4.45132 32.3105C3.06494 30.4592 4.17405 27.8573 3.61445 25.7433C3.20106 24.1822 0.866894 22.6936 0.493831 20.8948C-0.204402 17.5224 3.20358 16.3591 3.67999 14.0424C4.10347 11.9809 3.08259 9.51166 4.45132 7.68284C5.84023 5.82902 8.68609 6.20929 10.3598 5.05346C12.0336 3.89763 12.7772 0.48018 15.2651 0.0548754ZM5.47725 31.7001C6.39478 32.7883 9.52297 32.9635 10.9068 33.8441C12.5579 34.8974 13.6796 38.2122 15.2576 38.5675C17.4808 39.0678 19.2251 37.2691 21.2719 37.259C23.3565 37.249 25.2521 38.9277 27.3292 38.6125C29.0659 38.3498 30.1675 34.9574 31.9168 33.8441C33.3461 32.9334 36.9229 32.7258 37.5582 31.2222C38.1152 29.9063 37.4069 27.2093 37.9917 25.3505C38.5059 23.7118 40.52 22.2758 40.8905 21.105C41.8433 18.0978 38.2413 16.7393 37.7674 13.7597C37.543 12.3437 38.0194 9.8544 37.5556 8.76112C36.9204 7.26004 33.3435 7.04989 31.9143 6.13924C30.3439 5.13852 28.9928 1.86367 27.7753 1.4809C25.5571 0.780396 23.4801 2.7368 21.2694 2.72429C19.3083 2.71428 17.6068 1.04809 15.4895 1.37082C13.6191 1.65602 12.6587 5.02094 10.9043 6.13924C8.65837 7.57026 5.07142 6.69464 4.83447 10.2697C4.72356 11.9459 5.38902 12.8115 4.70591 14.7829C4.10851 16.5017 1.87013 18.0678 1.64831 19.704C1.4038 21.5203 4.09087 23.4241 4.70591 25.1979C5.43692 27.3019 4.26983 30.264 5.47725 31.6951V31.7001Z" fill="#2E5054"/>
<path d="M25.7613 21.145C30.1095 20.5421 32.1286 27.2794 28.1282 29.8162C21.6954 33.8966 18.8117 22.1082 25.7613 21.145ZM23.9867 23.3766C21.3047 26.036 24.264 31.3498 27.7476 28.6154C31.2262 25.8834 27.4073 19.9842 23.9867 23.3766Z" fill="#2E5054"/>
<path d="M16.6591 9.36405C22.4239 8.86619 22.502 18.6457 16.5784 18.6457C11.0455 18.6457 11.2648 9.82688 16.6591 9.36405ZM14.6022 16.6143C17.2161 19.1461 21.3198 15.2333 19.326 12.061C16.7624 7.98306 11.4286 13.537 14.6022 16.6143Z" fill="#2E5054"/>
<path d="M28.1964 11.4715L13.4118 28.1684L14.4532 29.0767L29.2378 12.3798L28.1964 11.4715Z" fill="#2E5054"/>
</svg>
