<svg width="36" height="40" viewBox="0 0 36 40" fill="none" xmlns="http://www.w3.org/2000/svg">
<path d="M18.756 8.73016C18.8188 8.66801 18.5368 7.51433 18.4702 7.31816C18.3417 6.94331 17.8153 6.1975 17.7921 5.95569C17.7612 5.62163 18.0983 5.32447 18.4035 5.35069C19.1192 5.41284 19.9325 8.04552 19.8185 8.72919L25.1693 8.7389L35.1987 11.0851C35.3783 11.1638 35.5232 11.3017 35.5599 11.4988C35.6179 11.8096 35.614 14.4287 35.5425 14.6802C35.3494 15.3561 34.4734 14.8268 34.0175 14.8462V38.7842C34.0175 39.0318 35.0113 38.89 35.2248 38.9298C35.6556 39.0104 35.727 39.7864 35.1813 39.9544L1.22488 40C0.244543 39.8854 0.667586 38.9298 0.840474 38.9298H3.68973V12.7117H2.09511C2.07483 12.7117 1.82951 12.4689 1.80729 12.4184C1.72036 12.2262 1.70588 9.61387 1.75224 9.25942C1.78508 9.00401 1.92416 8.78357 2.1946 8.73307C2.46504 8.68258 4.17363 8.68743 4.39287 8.75152C4.92892 8.9069 4.79274 9.79936 4.41316 9.79936H2.8195V11.6445H25.2755L34.4994 13.7809V12.0329L24.8882 9.80033L8.10464 9.77799C7.44593 9.62941 7.75597 8.07951 7.87091 7.54637C7.98584 7.01323 8.49098 5.27494 9.28684 5.96734C9.70602 6.33151 9.1468 7.04819 9.00675 7.52307C8.89278 7.91151 8.7875 8.31938 8.80778 8.73113H18.756V8.73016ZM4.75121 12.7117V15.2366H24.4546V12.7117H4.75121ZM32.9541 14.5568L25.517 12.9059V38.7861C25.517 38.7968 25.6513 38.9318 25.6619 38.9318H32.9541V18.1985C32.2393 17.7392 28.2668 17.3197 27.9249 16.8467C27.6148 16.4185 28.0176 15.8319 28.5575 16.0145L32.955 16.9846V14.5568H32.9541ZM24.4546 16.3048H4.75121V38.7861C4.75121 38.7968 4.88546 38.9318 4.89608 38.9318H11.9468C11.9574 38.9318 12.0917 38.7968 12.0917 38.7861V33.6392C12.0917 33.6285 11.9574 33.4935 11.9468 33.4935H8.37315C8.08919 33.4935 7.76659 32.5593 8.47263 32.4282L20.3961 32.4768C20.9321 32.7147 20.5883 33.4945 20.3497 33.4945H16.6312V38.7871C16.6312 38.7978 16.7654 38.9327 16.7761 38.9327H24.4546V16.3048ZM13.1541 33.4935V38.9318H15.5687V33.4935H13.1541Z" fill="#2E5054"/>
<path d="M13.7075 0.00568078C14.5063 -0.116679 14.7371 1.77602 15.0858 1.98092C15.3234 2.12076 16.4399 2.1567 16.8292 2.2674C18.3755 2.70537 15.9918 4.07076 15.872 4.52815C15.7349 5.05158 16.5665 6.63644 15.789 6.86659C15.1563 7.05402 14.2233 6.01881 13.6853 6.01881C13.1474 6.01881 11.7604 7.40945 11.3663 6.59468C11.1403 6.12758 11.7401 4.93505 11.5904 4.43104C11.5189 4.19118 10.6612 3.53762 10.4497 3.24434C9.50513 1.93625 11.5083 2.18389 12.2153 2.01006C12.8692 1.84885 13.1358 0.0940521 13.7066 0.00762301L13.7075 0.00568078ZM14.8926 5.33029C14.9545 5.26426 14.6531 4.36889 14.714 4.13874C14.7671 3.9348 15.5629 3.33757 15.5678 3.24337C15.2519 2.96369 14.7004 3.16957 14.3576 2.90834C14.1615 2.75976 13.922 2.09357 13.8302 1.83526C13.5009 2.08386 13.4497 2.77432 13.0556 2.94912C12.7774 3.07246 12.2172 3.07246 11.8995 3.09868C12.0231 3.39972 12.6741 3.7804 12.7514 4.04163C12.8431 4.35238 12.536 5.28077 12.5765 5.33126C13.0826 5.11665 13.439 4.7282 14.0272 4.89135C14.2021 4.93991 14.8048 5.42449 14.8926 5.33126V5.33029Z" fill="#2E5054"/>
<path d="M15.8295 18.2665C16.9306 18.3393 18.3233 18.1014 19.3877 18.2422C19.7074 18.2849 19.7808 18.3617 19.8223 18.6792C19.9247 19.459 19.9257 22.182 19.8223 22.9618C19.7731 23.3376 19.5471 23.4522 19.1916 23.493C18.7918 23.5396 16.0816 23.5387 15.8595 23.4396C15.673 23.3571 15.5871 23.1512 15.5629 22.9608C15.4615 22.1791 15.4606 19.458 15.5629 18.6782C15.589 18.4801 15.618 18.3384 15.8286 18.2655L15.8295 18.2665ZM18.756 19.3153H16.6312V22.4229H18.756V19.3153Z" fill="#2E5054"/>
<path d="M13.0343 25.4556L13.0633 30.3423C13.0025 30.4005 12.9368 30.4977 12.8624 30.5287C12.5814 30.6443 9.99964 30.622 9.52831 30.5831C9.37763 30.5705 9.13134 30.5656 9.02413 30.4588C8.7788 30.2141 8.89954 26.1121 8.99226 25.4712C9.11009 25.3216 9.26752 25.3449 9.43075 25.3294C10.2256 25.2546 11.7275 25.2653 12.5311 25.3313C12.7079 25.3459 12.8856 25.3459 13.0353 25.4556H13.0343ZM12.0917 26.4044H9.9668V29.512H12.0917V26.4044Z" fill="#2E5054"/>
<path d="M19.6987 25.4556L19.7277 30.3423C19.6668 30.4005 19.6012 30.4977 19.5268 30.5287C19.2457 30.6443 16.664 30.622 16.1927 30.5831C16.042 30.5705 15.7957 30.5656 15.6885 30.4588C15.4432 30.2141 15.5639 26.1121 15.6566 25.4712C15.7745 25.3216 15.9319 25.3449 16.0951 25.3294C16.89 25.2546 18.3919 25.2653 19.1955 25.3313C19.3723 25.3459 19.55 25.3459 19.6997 25.4556H19.6987ZM18.756 26.4044H16.6312V29.512H18.756V26.4044Z" fill="#2E5054"/>
<path d="M9.16515 18.2665C10.2817 18.3306 11.6387 18.114 12.7253 18.2412C13.1242 18.2879 13.1271 18.517 13.1589 18.8734C13.2401 19.7863 13.2739 22.0888 13.1589 22.9618C13.1097 23.3376 12.8837 23.4522 12.5282 23.493C12.1284 23.5396 9.4182 23.5387 9.19605 23.4396C9.00964 23.3571 8.92368 23.1512 8.89954 22.9609C8.79812 22.1791 8.79716 19.458 8.89954 18.6782C8.92561 18.4801 8.95459 18.3384 9.16515 18.2655V18.2665ZM12.0917 19.3153H9.9668V22.4229H12.0917V19.3153Z" fill="#2E5054"/>
<path d="M27.4487 19.5581C27.4989 19.391 27.9007 19.3085 28.0707 19.3124C28.4204 19.3201 30.1995 19.7037 30.5616 19.8271C30.9557 19.9611 31.0851 20.1174 31.1238 20.5243C31.2117 21.4313 31.2233 23.6231 31.1199 24.5137C31.0832 24.8302 30.9499 25.1167 30.5916 25.1293C30.3318 25.1381 27.9085 24.6108 27.666 24.4942C27.5752 24.4505 27.4477 24.299 27.4477 24.2214V19.56L27.4487 19.5581ZM30.0565 23.8795V20.9176C29.6393 20.6729 29.0086 20.6263 28.5111 20.5777V23.5882L30.0565 23.8795Z" fill="#2E5054"/>
<path d="M27.5685 31.7222C27.3782 31.5319 27.3782 26.9075 27.5685 26.7181C27.6911 26.5957 27.9896 26.5889 28.1605 26.6035C28.5005 26.6336 30.6785 27.1298 30.8794 27.2755C31.0552 27.4027 31.0967 27.4979 31.1238 27.7096C31.2348 28.5574 31.2039 30.8162 31.1238 31.7009C31.0861 32.1175 30.9828 32.4205 30.5037 32.4175C30.2506 32.4156 27.6747 31.8291 27.5685 31.7222ZM30.0565 28.1524L28.5111 27.8611V30.8715L30.0565 31.1629V28.1524Z" fill="#2E5054"/>
</svg>
