<svg width="47" height="40" viewBox="0 0 47 40" fill="none" xmlns="http://www.w3.org/2000/svg">
<path d="M0.811839 13.9561C1.15376 13.3901 1.80695 13.3167 2.11586 13.9514C2.37761 15.1734 1.72206 17.5795 2.59927 18.5055C3.59439 19.5547 5.36768 18.4226 6.32506 19.5334C6.3958 19.6139 6.72594 20.1728 6.72594 20.2107V23.4978C6.88157 23.5381 6.90515 23.4339 6.99476 23.3628C8.46149 22.2332 10.3881 19.1615 12.2344 18.991L19.9831 18.9863C20.1789 17.3498 21.2494 15.8507 22.8129 15.3013C22.9685 15.2468 23.6995 15.0337 23.8033 15.0337H26.1779V7.78682C26.1779 7.57604 26.6165 7.28712 26.8499 7.28712C27.0834 7.28712 27.522 7.57604 27.522 7.78682V15.0337H44.0616C45.302 15.0337 46.5565 16.4073 46.6956 17.6103C47.0163 20.3717 46.474 23.6944 46.7074 26.515C46.6131 27.4031 45.4647 27.4315 45.3586 26.515C45.0473 23.8223 45.6015 20.5446 45.3539 17.788C45.1534 16.8051 44.5686 16.4523 43.6183 16.3812L24.0721 16.3859C22.6643 16.5446 21.5607 17.5369 21.3461 18.9602L21.332 32.5493C21.4121 33.3687 21.8861 33.956 22.7209 34.0342C26.5198 34.3941 30.8822 33.7595 34.7401 34.0271C37.3458 34.2071 38.6168 37.0253 40.5174 38.4889C40.607 38.5575 40.6306 38.6617 40.7862 38.6238V35.3367C40.7862 35.2396 41.0621 34.8157 41.147 34.7091C42.161 33.4421 44.005 34.5552 44.9082 33.6245C45.7925 32.7127 45.1181 30.6547 45.3751 29.5037C45.5425 28.7601 46.5989 28.7743 46.7027 29.6624C46.7852 30.3729 46.7664 31.9951 46.698 32.7245C46.5777 34.0271 45.5637 35.2467 44.2338 35.3817C43.8305 35.422 42.3638 35.2633 42.1704 35.5593C42.0101 35.8009 42.2082 38.2426 42.1068 38.8275C41.9228 39.9003 40.7084 40.3432 39.843 39.7038C38.5248 38.7304 37.2632 36.7979 35.9451 35.7867C35.5489 35.4835 35.1386 35.4172 34.6458 35.3793C30.6889 35.0786 26.3665 35.6185 22.3695 35.3722C21.4051 35.3651 19.9831 33.8992 19.9831 32.9969V20.348H12.1401C11.744 20.348 8.56761 23.8744 7.92385 24.3977C7.28009 24.9211 6.53493 25.2195 5.81571 24.5398C4.89134 23.666 5.70017 20.9969 5.28986 20.4759C5.10357 20.2391 3.84671 20.3812 3.45526 20.3386C2.09228 20.1894 1.14197 19.2042 0.800049 17.9182V13.9561H0.811839Z" fill="#2E5054"/>
<path d="M0.811839 2.3422C1.18206 1.12729 1.97438 0.198933 3.27605 0H25.0601C27.463 0.414444 27.72 2.66192 27.5314 4.73177C27.4347 5.79038 26.2887 5.74775 26.1802 4.8194C26.0316 3.54528 26.6872 1.81408 24.9658 1.35701L3.29727 1.37359C2.66766 1.52279 2.28565 2.05564 2.16303 2.66665L2.13709 11.1924C1.88006 11.8863 1.16791 11.8531 0.811839 11.2563V2.3422Z" fill="#2E5054"/>
<path d="M14.7977 6.84188H19.146C19.2851 6.84188 19.5941 7.19475 19.6247 7.35816C19.8534 8.59439 17.5354 8.09469 16.861 8.19179C16.762 9.83299 16.0546 11.3652 15.0712 12.6488C16.064 13.4801 17.2666 13.9869 18.5423 14.1977C19.0706 14.2853 20.0916 14.0508 20.0916 14.8987C20.0916 15.7465 19.113 15.6163 18.5306 15.5618C16.9671 15.4197 15.2929 14.6287 14.1256 13.5985C13.0621 14.5292 11.7345 15.2066 10.3338 15.4552C9.67591 15.5713 7.82009 15.8957 8.2021 14.6666C8.38839 14.0674 9.24202 14.2735 9.70657 14.1953C10.9988 13.9774 12.1731 13.4919 13.1777 12.6465C12.1944 11.3629 11.4893 9.83062 11.3879 8.18942C10.7135 8.09232 8.39547 8.59202 8.6242 7.3558C8.65486 7.19239 8.96377 6.83952 9.1029 6.83952H13.4512V4.36469C13.4512 3.78921 14.7953 3.78921 14.7953 4.36469V6.83952L14.7977 6.84188ZM15.5146 8.19416H12.7344C12.8782 9.43039 13.2956 10.6714 14.1233 11.6139C14.9439 10.6714 15.3684 9.42328 15.5122 8.19416H15.5146Z" fill="#2E5054"/>
<path d="M35.6833 27.1899L33.4408 21.248L32.5423 23.3605C31.9198 23.7465 31.2595 23.3605 31.4411 22.6168C31.5637 22.1076 32.2594 20.258 32.5117 19.8199C33.0753 18.8442 34.1907 19.1734 34.4713 20.1704C35.4947 23.4126 37.1005 26.6215 38.1051 29.8471C38.3079 30.496 38.4517 31.3415 37.4354 31.152C36.8482 31.0431 36.4568 29.0537 36.1667 28.5351H30.8822C30.7337 28.528 30.6653 28.5635 30.5804 28.6843C30.2291 29.1769 29.998 31.0336 29.3589 31.152C28.7199 31.2704 28.3662 30.8441 28.5501 30.2473L30.354 25.4871C30.6323 25.0467 31.276 24.959 31.5378 25.4564C31.8161 25.9868 31.236 26.6405 31.1982 27.1923H35.681L35.6833 27.1899Z" fill="#2E5054"/>
</svg>
