<svg width="51" height="39" viewBox="0 0 51 39" fill="none" xmlns="http://www.w3.org/2000/svg">
<path d="M48.72 15.478C48.4905 15.2673 48.407 14.6766 48.3823 14.3643C48.0845 10.7092 48.61 6.66284 48.388 2.96635C48.3235 2.44151 48.0105 2.08785 47.506 1.943L3.59025 1.91478C2.95478 1.90538 2.45589 2.5619 2.43123 3.16388V35.7512C2.48814 36.3871 2.71767 36.8216 3.33986 37.0492L47.506 37.0737C48.0105 36.927 48.3235 36.5752 48.388 36.0503C48.7314 33.2286 48.0523 29.7033 48.3975 26.8665C48.5588 25.5441 50.1692 25.5629 50.3039 26.7536C50.0801 29.7673 50.5961 33.1853 50.3001 36.1482C50.137 37.7829 48.7428 38.9059 47.1304 39H3.69079C2.23964 38.9248 0.972495 37.9334 0.646224 36.5225C0.352201 25.4914 0.608286 14.4132 0.517233 3.36516C0.631049 1.81696 1.30256 0.665693 2.8182 0.150255C17.5971 -0.152612 32.4311 0.112631 47.2309 0.0166921C48.8945 0.0938197 50.1617 1.32598 50.3039 2.96447L50.2944 14.955C50.1844 15.6529 49.2284 15.9464 48.72 15.478Z" fill="#DEDCD1"/>
<path d="M19.8336 17.4438C20.103 17.7523 20.2434 18.1624 20.4387 18.5142C21.004 18.5217 21.575 18.4916 22.1403 18.5047C27.446 18.6364 32.746 18.4201 38.0612 18.6139C38.266 18.6214 38.4614 18.5085 38.653 18.516C39.7172 18.5574 40.1155 19.8799 39.1197 20.3633L20.6227 20.4085C20.3515 20.4593 20.1864 21.0631 19.9645 21.3547C18.3958 23.4259 15.1539 22.8408 14.3629 20.401C12.7657 20.448 11.2747 20.179 9.82355 20.9898C6.07522 23.0873 7.34806 28.6536 11.5554 29.0994L24.0372 29.107C25.054 26.1498 29.0508 26.21 30.1112 29.1051L36.0922 29.1484C37.2436 29.6036 36.9704 30.864 35.7374 30.9994C33.9885 31.1913 31.8981 30.8583 30.1112 30.9957C29.0166 33.8494 25.0843 33.9171 24.0372 30.9938L11.8571 30.9994C4.0531 30.4501 3.77805 19.925 10.8725 18.6327C11.5497 18.5104 12.079 18.6421 12.6632 18.6195C13.2134 18.5969 13.7843 18.4408 14.3629 18.4972C14.5848 18.2263 14.6683 17.9178 14.8883 17.6206C16.0682 16.0348 18.538 15.9652 19.8336 17.4457V17.4438ZM18.6974 19.498C18.6974 18.7944 18.1207 18.2226 17.4112 18.2226C16.7018 18.2226 16.1251 18.7944 16.1251 19.498C16.1251 20.2016 16.7018 20.7734 17.4112 20.7734C18.1207 20.7734 18.6974 20.2016 18.6974 19.498ZM28.3489 30.0344C28.3489 29.3289 27.7723 28.7571 27.0609 28.7571C26.3496 28.7571 25.7729 29.3289 25.7729 30.0344C25.7729 30.7398 26.3496 31.3117 27.0609 31.3117C27.7723 31.3117 28.3489 30.7398 28.3489 30.0344Z" fill="#DEDCD1"/>
<path d="M43.7501 26.2532C43.7937 26.3906 44.3988 26.5185 44.5885 26.6201C47.6634 28.2736 47.2044 32.8317 43.8335 33.7309C39.3473 34.9273 37.052 28.8342 40.7946 26.7198C41.0412 26.5806 41.7678 26.3962 41.8209 26.2382L41.8323 17.2557C42.113 15.8768 43.8885 16.2022 43.7501 17.6074H49.6457C50.8996 17.7504 50.4064 19.466 50.395 20.2523C50.3798 21.3754 50.5126 22.664 50.4633 23.7381C50.4424 24.199 50.0023 24.7032 49.5414 24.7032H43.7482C43.8259 25.1001 43.6419 25.9222 43.7482 26.2514L43.7501 26.2532ZM43.7501 19.4077V22.8051H48.5872V19.4077H43.7501ZM43.7519 28.3018C43.862 29.1484 43.7368 30.5592 42.5398 30.2545C41.6634 30.0306 41.838 28.9734 41.8342 28.3018C40.1687 29.1333 40.6277 31.8102 42.4886 31.9983C44.7649 32.2278 45.6489 29.4268 43.7501 28.3018H43.7519Z" fill="#DEDCD1"/>
<path d="M30.1339 8.20162C30.8927 5.71473 34.2047 5.19177 35.7337 7.32124C35.8835 7.53005 36.0637 8.13202 36.2591 8.19786C39.0039 8.22984 41.6445 7.76896 43.3707 10.3386C43.8999 11.1268 44.9565 13.8545 43.3877 14.0088C42.2515 14.1216 42.3994 12.8105 42.1832 12.1144C41.3846 9.55418 38.3704 10.0019 36.2591 10.0264C35.9935 10.2972 35.929 10.6358 35.6862 10.9575C34.4134 12.6374 31.881 12.7032 30.6082 11.0008C30.371 10.6848 30.2231 10.0771 29.8911 10.0132H14.5753C13.5169 9.88715 13.5814 8.39162 14.5716 8.20727L30.132 8.19974L30.1339 8.20162ZM34.421 9.11775C34.421 8.41043 33.8424 7.83668 33.1292 7.83668C32.4159 7.83668 31.8374 8.41043 31.8374 9.11775C31.8374 9.82507 32.4159 10.3988 33.1292 10.3988C33.8424 10.3988 34.421 9.82507 34.421 9.11775Z" fill="#DEDCD1"/>
<path d="M9.39105 10.5136C8.79541 11.4165 7.91145 12.1577 7.21148 13.0005C6.11316 13.4576 5.34111 12.5998 5.98038 11.5783C6.22887 11.1814 8.21875 9.33032 8.17322 9.07637L5.85518 6.47284C5.52512 5.72037 5.98227 5.0187 6.82261 5.109C7.51309 5.18424 9.28862 7.77648 9.53901 7.71252L11.7091 5.26701C12.3654 4.82306 13.2627 5.28206 13.2266 6.06274C13.1906 6.84343 11.2519 8.32578 10.8118 9.07637C10.7549 9.39993 12.9193 11.2642 13.1413 11.8379C13.4941 12.7484 12.6424 13.4463 11.7717 12.9967C11.4947 12.8537 10.6468 11.7194 10.349 11.409C10.2428 11.2999 9.44606 10.4741 9.39295 10.5117L9.39105 10.5136Z" fill="#DEDCD1"/>
</svg>
