<svg width="600" height="241" viewBox="0 0 600 241" fill="none" xmlns="http://www.w3.org/2000/svg">
<path d="M313.851 38.7881L299.162 74.5903C294.765 85.1906 291.564 93.0437 287.525 101.464H293.359C293.598 96.5075 294.615 91.1924 298.325 81.3386H322.288L330.395 101.464H339.759L314.18 38.818H313.851V38.7881ZM298.923 79.8158L300.778 75.1875L310.321 51.6876L321.719 79.8158H298.923Z" fill="#2E5054"/>
<path d="M361.268 73.7542H366.923C369.286 73.7542 370.124 74.1722 371.32 75.5159L396.3 103.316H396.809V92.6257L377.902 71.664C385.919 68.887 392.68 64.3483 392.68 55.659C392.68 45.208 383.975 40.1617 367.79 40.1617H352.682V101.464H361.298V73.7542H361.268ZM361.268 41.4755H367.431C378.56 41.4755 383.975 47.2982 383.975 56.2264C383.975 65.1545 378.231 72.4105 369.047 72.4105C367.371 72.4105 363.213 72.2313 361.298 71.9029V41.5054L361.268 41.4755Z" fill="#2E5054"/>
<path d="M459.902 87.8182L458.885 87.221C453.41 95.6416 445.393 98.747 438.033 98.747C424.451 98.747 414.25 87.7884 414.25 69.1856C414.25 52.7626 422.686 40.4603 435.61 40.4603C443.807 40.4603 450.538 45.5962 454.846 52.7626L459.065 48.9704C454.248 43.506 445.991 39.1166 436.029 39.1166C418.229 39.1166 404.797 51.6578 404.797 71.2758C404.797 90.8938 417.361 102.45 434.234 102.45C445.722 102.45 454.308 96.8061 459.872 87.7884L459.902 87.8182Z" fill="#2E5054"/>
<path d="M493.139 101.464V41.6547H495.084C500.14 41.6547 504.866 42.9088 511.627 46.1038H511.807L510.7 40.1318H466.992L465.826 46.1038H466.005C472.766 42.9088 477.493 41.6547 482.549 41.6547H484.583V101.464H493.199H493.139Z" fill="#2E5054"/>
<path d="M528.919 40.1318H520.303V101.434H528.919V40.1318Z" fill="#2E5054"/>
<path d="M599.013 87.221C593.538 95.6416 585.521 98.747 578.161 98.747C564.579 98.747 554.378 87.7884 554.378 69.1856C554.378 52.7626 562.814 40.4603 575.738 40.4603C583.935 40.4603 590.666 45.5962 594.974 52.7626L599.192 48.9704C594.376 43.506 586.119 39.1166 576.157 39.1166C558.357 39.1166 544.924 51.6578 544.924 71.2758C544.924 90.8938 557.489 102.45 574.362 102.45C585.85 102.45 594.436 96.8061 600 87.7884L598.983 87.1912L599.013 87.221Z" fill="#2E5054"/>
<path d="M328.869 156.705C328.869 146.254 320.164 141.208 303.979 141.208H288.871V202.51H297.487V174.8H303.141C305.505 174.8 306.342 175.218 307.539 176.562L332.519 204.362H333.027V193.672L314.12 172.71C322.138 169.933 328.899 165.395 328.899 156.705H328.869ZM305.235 173.457C303.56 173.457 299.402 173.278 297.487 172.949V142.552H303.65C314.779 142.552 320.193 148.374 320.193 157.302C320.193 166.231 314.45 173.487 305.265 173.487L305.235 173.457Z" fill="#2E5054"/>
<path d="M375.09 140.193C356.781 140.193 342.601 152.734 342.601 172.441C342.601 192.149 356.452 203.526 373.983 203.526C391.514 203.526 406.472 190.985 406.472 171.277C406.472 151.569 392.621 140.193 375.09 140.193ZM374.94 202.182C361.448 202.182 352.084 189.88 352.084 171.516C352.084 153.152 360.85 141.536 374.432 141.536C388.014 141.536 397.048 153.839 397.048 172.203C397.048 190.566 388.283 202.182 374.94 202.182Z" fill="#2E5054"/>
<path d="M450.269 140.193C431.961 140.193 417.78 152.734 417.78 172.441C417.78 192.149 431.631 203.526 449.162 203.526C466.693 203.526 481.651 190.985 481.651 171.277C481.651 151.569 467.8 140.193 450.269 140.193ZM450.12 202.182C436.627 202.182 427.264 189.88 427.264 171.516C427.264 153.152 436.029 141.536 449.611 141.536C463.193 141.536 472.228 153.839 472.228 172.203C472.228 190.566 463.462 202.182 450.12 202.182Z" fill="#2E5054"/>
<path d="M488.412 141.208L487.246 147.18H487.425C494.186 143.985 498.913 142.731 503.969 142.731H506.003V202.54H514.619V142.731H516.564C521.619 142.731 526.346 143.985 533.107 147.18H533.287L532.18 141.208H488.412Z" fill="#2E5054"/>
<path d="M563.323 167.813L559.104 165.872C552.343 162.767 545.941 159.542 545.941 152.316C545.941 146.433 550.399 141.536 558.267 141.536C565.267 141.536 571.34 145.508 575.05 149.36L576.396 144.642C572.926 142.611 566.105 140.193 559.194 140.193C547.467 140.193 539.779 147.09 539.779 156.377C539.779 166.41 548.634 170.769 555.305 173.815L559.523 175.666C565.776 178.533 573.016 182.146 573.016 190.238C573.016 197.136 567.451 202.212 559.254 202.212C552.433 202.212 544.416 198.748 540.347 193.791L538.821 199.106C542.621 201.047 551.147 203.556 558.476 203.556C570.383 203.556 579.059 196.389 579.059 185.878C579.059 175.368 570.862 171.396 563.293 167.843L563.323 167.813Z" fill="#2E5054"/>
<path d="M212.256 108.213L231.462 87.2509L227.962 83.7573C226.615 84.9815 208.426 101.584 200.02 109.258C191.434 110.9 183.297 114.155 175.519 117.887C174.591 118.275 173.125 118.992 172.168 119.261C158.526 124.307 143.299 124.009 129.537 119.53C128.52 119.052 127.503 118.604 126.486 118.186C126.905 117.2 127.294 116.185 127.682 115.17C134.803 101.196 146.649 89.4008 161.398 83.7871C162.505 83.399 163.642 82.9809 164.749 82.5629C176.326 82.0553 200.169 80.9803 202.084 80.8907V75.934L181.053 74.9784C185.331 72.4403 189.4 69.5141 193.049 65.9607C200.887 58.1374 206.931 47.8058 207.499 36.5486L202.712 36.1903C202.593 36.6084 202.473 37.2653 202.294 37.8027C201.127 41.804 199.242 45.7156 196.968 49.2093C191.434 57.8985 183.147 64.5274 174.023 69.2155C172.946 69.6932 170.104 71.0071 168.997 71.5147C168.398 71.7834 167.68 72.0522 166.933 72.3209L165.437 38.7583H160.471L158.855 75.1875C148.684 78.9797 139.44 85.31 132.08 93.3423C132.589 81.3386 130.076 69.1856 124.541 58.5853C123.674 56.6146 122.238 53.8376 121.46 51.8668C121.041 50.7321 119.934 47.776 119.545 46.701C119.156 45.4768 118.438 42.6998 118.049 41.4158C117.99 41.1172 117.93 40.8186 117.87 40.5499C125.708 32.0099 141.773 14.4522 143.059 13.0488L139.559 9.5552L116.464 30.6364C115.925 21.0812 117.69 11.3767 122.657 3.1353L119.007 0C117.481 1.61244 116.284 3.25474 115.148 5.13592C110.81 12.0933 108.775 20.3048 108.446 28.4566L87.2956 9.13716L83.7954 12.6308L109.284 40.4304C110.84 49.3586 114.25 57.8388 118.139 65.901C118.528 66.8267 119.246 68.2898 119.515 69.2453C124.571 82.8615 124.272 98.0602 119.785 111.796C119.306 112.811 118.857 113.826 118.438 114.842C117.451 114.423 116.434 114.035 115.417 113.647C101.416 106.54 89.5991 94.7159 83.9749 79.9949C83.586 78.92 83.197 77.845 82.8081 76.77C82.2996 65.1246 81.2226 40.6096 81.1328 38.7583H76.1667L75.2094 60.4366C72.6665 56.1368 69.7048 52.0758 66.1448 48.4329C58.3067 40.6096 47.9557 34.5779 36.6773 34.0105L36.3183 38.7881C36.7371 38.9076 37.3953 39.027 37.9338 39.2062C41.9426 40.3707 45.8616 42.2519 49.3618 44.5213C58.0674 50.0453 64.7088 58.3166 69.4057 67.4239C69.8843 68.4988 71.2006 71.3355 71.7092 72.4403C71.9785 73.0375 72.2477 73.7542 72.5169 74.4708L39.5493 75.934V80.8907C41.2545 80.9803 63.3027 81.9358 75.359 82.4733C79.1583 92.6257 85.5006 101.882 93.5481 109.228C81.5217 108.72 69.3458 111.228 58.7256 116.753C56.7511 117.619 53.9689 119.052 51.9944 119.828C50.8576 120.246 47.8959 121.351 46.8189 121.739C45.6522 122.127 43.0195 122.814 41.6733 123.172C33.207 115.439 14.5692 98.3887 13.1631 97.1346L9.66294 100.628L31.771 124.755C21.8388 125.502 11.6972 123.8 3.1412 118.634L0 122.277C1.61548 123.8 3.26087 124.994 5.14559 126.129C12.0862 130.458 20.2533 132.459 28.4204 132.817L10.1117 152.794L13.6119 156.287C14.8983 155.123 31.3223 140.133 40.2074 132.011C49.272 130.488 57.858 127.054 66.055 123.113C66.9824 122.725 68.4483 122.008 69.4057 121.739C83.0475 116.693 98.2748 116.991 112.036 121.47C113.053 121.948 114.071 122.396 115.088 122.814C114.669 123.8 114.28 124.815 113.891 125.83C106.771 139.804 94.9242 151.599 80.1755 157.213C79.0985 157.601 77.9916 157.989 76.9146 158.407C65.367 158.915 41.434 159.99 39.5193 160.079V165.036L60.5804 165.992C56.2724 168.53 52.2038 171.486 48.5241 175.039C40.6861 182.863 34.643 193.194 34.0746 204.451L38.8612 204.81C38.9809 204.392 39.1005 203.735 39.28 203.197C40.4467 199.196 42.3315 195.284 44.6051 191.791C50.1396 183.101 58.4264 176.473 67.5508 171.785C68.6278 171.307 71.4699 169.993 72.5768 169.485C73.1751 169.217 73.8931 168.948 74.641 168.679L76.1368 202.212H81.1029L82.7184 165.813C92.8899 162.02 102.134 155.69 109.493 147.658C108.985 159.661 111.498 171.814 117.032 182.415C117.9 184.385 119.336 187.162 120.114 189.133C120.533 190.268 121.639 193.224 122.028 194.299C122.417 195.523 123.135 198.3 123.524 199.584V199.644C116.075 207.766 98.8133 226.607 97.4671 228.071L100.967 231.564L125.05 209.587C125.738 219.381 124.003 229.414 118.917 237.865L122.567 241C124.093 239.388 125.289 237.745 126.426 235.864C130.584 229.205 132.619 221.382 133.097 213.589L153.261 232.012L156.761 228.519L132.529 202.122C131.093 192.627 127.563 183.669 123.434 175.129C123.045 174.203 122.327 172.74 122.058 171.785C117.002 158.168 117.302 142.97 121.789 129.234C122.268 128.219 122.716 127.204 123.135 126.188C124.122 126.606 125.14 126.995 126.157 127.383C140.158 134.489 151.974 146.314 157.599 161.035C157.988 162.11 158.377 163.215 158.765 164.29C159.274 175.965 160.351 200.39 160.441 202.242H165.407L166.364 180.623C168.907 184.923 171.869 188.954 175.429 192.627C183.267 200.45 193.618 206.482 204.896 207.049L205.255 202.272C204.836 202.152 204.178 202.033 203.64 201.854C199.631 200.689 195.712 198.808 192.212 196.538C183.506 191.014 176.865 182.743 172.168 173.636C171.689 172.561 170.373 169.724 169.864 168.619C169.595 168.022 169.326 167.306 169.057 166.559L202.024 165.096V160.139C200.319 160.05 178.241 159.094 166.185 158.557C162.385 148.404 156.043 139.177 147.996 131.832C160.022 132.339 172.198 129.831 182.818 124.307C184.793 123.441 187.575 122.008 189.549 121.232C190.686 120.814 193.648 119.709 194.725 119.321C195.951 118.932 198.734 118.216 200.02 117.828C200.259 117.768 200.529 117.708 200.768 117.648C209.563 125.681 227.034 141.656 228.41 142.91L231.911 139.416L210.67 116.245C220.303 115.648 230.116 117.409 238.402 122.396L241.544 118.753C239.928 117.23 238.283 116.036 236.398 114.901C229.218 110.422 220.692 108.422 212.286 108.183L212.256 108.213Z" fill="#2E5054"/>
</svg>
