<svg width="171" height="68" viewBox="0 0 171 68" fill="none" xmlns="http://www.w3.org/2000/svg">
<path d="M89.4476 10.9444L85.2613 21.0462C84.0079 24.0372 83.0956 26.253 81.9446 28.6289H83.6072C83.6754 27.2303 83.9653 25.7306 85.0225 22.9503H91.852L94.1625 28.6289H96.8312L89.5414 10.9528H89.4476V10.9444ZM85.1931 22.5206L85.7217 21.2147L88.4415 14.5841L91.69 22.5206H85.1931Z" fill="#F7F7F7"/>
<path d="M102.961 20.8103H104.573C105.247 20.8103 105.485 20.9283 105.826 21.3074L112.946 29.1513H113.091V26.135L107.702 20.2205C109.987 19.437 111.914 18.1564 111.914 15.7046C111.914 12.7558 109.433 11.3319 104.82 11.3319H100.515V28.6289H102.97V20.8103H102.961ZM102.961 11.7026H104.718C107.89 11.7026 109.433 13.3456 109.433 15.8647C109.433 18.3838 107.796 20.4312 105.178 20.4312C104.701 20.4312 103.516 20.3806 102.97 20.2879V11.7111L102.961 11.7026Z" fill="#F7F7F7"/>
<path d="M131.072 24.7786L130.782 24.6101C129.222 26.986 126.937 27.8622 124.84 27.8622C120.969 27.8622 118.061 24.7702 118.061 19.5212C118.061 14.8874 120.466 11.4162 124.149 11.4162C126.485 11.4162 128.403 12.8653 129.631 14.8874L130.833 13.8174C129.461 12.2756 127.107 11.037 124.268 11.037C119.195 11.037 115.367 14.5756 115.367 20.111C115.367 25.6464 118.948 28.9069 123.757 28.9069C127.031 28.9069 129.478 27.3146 131.064 24.7702L131.072 24.7786Z" fill="#F7F7F7"/>
<path d="M140.545 28.6289V11.7532H141.099C142.54 11.7532 143.887 12.1071 145.814 13.0085H145.865L145.549 11.3235H133.093L132.76 13.0085H132.811C134.738 12.1071 136.085 11.7532 137.526 11.7532H138.106V28.6289H140.562H140.545Z" fill="#F7F7F7"/>
<path d="M150.742 11.3235H148.286V28.6205H150.742V11.3235Z" fill="#F7F7F7"/>
<path d="M170.719 24.6101C169.158 26.986 166.873 27.8622 164.776 27.8622C160.905 27.8622 157.998 24.7702 157.998 19.5212C157.998 14.8874 160.402 11.4162 164.085 11.4162C166.421 11.4162 168.34 12.8653 169.568 14.8874L170.77 13.8174C169.397 12.2756 167.044 11.037 164.205 11.037C159.132 11.037 155.303 14.5756 155.303 20.111C155.303 25.6464 158.884 28.9069 163.693 28.9069C166.967 28.9069 169.414 27.3146 171 24.7702L170.71 24.6017L170.719 24.6101Z" fill="#F7F7F7"/>
<path d="M93.7277 44.2156C93.7277 41.2668 91.2466 39.8429 86.634 39.8429H82.3283V57.1399H84.7838V49.3213H86.3952C87.0688 49.3213 87.3075 49.4392 87.6486 49.8184L94.7679 57.6623H94.9128V54.646L89.5243 48.7315C91.8093 47.948 93.7362 46.6673 93.7362 44.2156H93.7277ZM86.9921 48.9421C86.5146 48.9421 85.3295 48.8916 84.7838 48.7989V40.222H86.5402C89.7119 40.222 91.2551 41.8649 91.2551 44.3841C91.2551 46.9032 89.6181 48.9506 87.0006 48.9506L86.9921 48.9421Z" fill="#F7F7F7"/>
<path d="M106.901 39.5564C101.683 39.5564 97.6412 43.095 97.6412 48.6557C97.6412 54.2163 101.589 57.4263 106.585 57.4263C111.581 57.4263 115.844 53.8877 115.844 48.3271C115.844 42.7664 111.897 39.5564 106.901 39.5564ZM106.858 57.0472C103.013 57.0472 100.344 53.576 100.344 48.3945C100.344 43.213 102.842 39.9356 106.713 39.9356C110.584 39.9356 113.159 43.4068 113.159 48.5883C113.159 53.7698 110.661 57.0472 106.858 57.0472Z" fill="#F7F7F7"/>
<path d="M128.327 39.5564C123.109 39.5564 119.067 43.095 119.067 48.6557C119.067 54.2163 123.015 57.4263 128.011 57.4263C133.008 57.4263 137.271 53.8877 137.271 48.3271C137.271 42.7664 133.323 39.5564 128.327 39.5564ZM128.284 57.0472C124.439 57.0472 121.77 53.576 121.77 48.3945C121.77 43.213 124.268 39.9356 128.139 39.9356C132.01 39.9356 134.585 43.4068 134.585 48.5883C134.585 53.7698 132.087 57.0472 128.284 57.0472Z" fill="#F7F7F7"/>
<path d="M139.198 39.8429L138.865 41.5279H138.916C140.843 40.6264 142.19 40.2726 143.631 40.2726H144.211V57.1483H146.666V40.2726H147.221C148.662 40.2726 150.009 40.6264 151.936 41.5279H151.987L151.671 39.8429H139.198Z" fill="#F7F7F7"/>
<path d="M160.547 47.3498L159.345 46.8021C157.418 45.9259 155.593 45.016 155.593 42.9771C155.593 41.3173 156.864 39.9356 159.106 39.9356C161.101 39.9356 162.832 41.0561 163.889 42.143L164.273 40.8118C163.284 40.2389 161.34 39.5564 159.37 39.5564C156.028 39.5564 153.837 41.5027 153.837 44.1229C153.837 46.9538 156.361 48.1839 158.262 49.0432L159.464 49.5656C161.246 50.3744 163.309 51.3939 163.309 53.6771C163.309 55.6233 161.724 57.0556 159.387 57.0556C157.443 57.0556 155.158 56.0783 153.999 54.6797L153.564 56.1794C154.647 56.727 157.077 57.4348 159.166 57.4348C162.559 57.4348 165.032 55.4127 165.032 52.447C165.032 49.4814 162.696 48.3608 160.538 47.3582L160.547 47.3498Z" fill="#F7F7F7"/>
<path d="M60.4929 30.533L65.9666 24.6185L64.9691 23.6328C64.5854 23.9782 59.4015 28.6626 57.0057 30.8279C54.5587 31.2913 52.2396 32.2096 50.0228 33.2628C49.7585 33.3723 49.3407 33.5745 49.0679 33.6504C45.1799 35.0742 40.8401 34.99 36.9181 33.7262C36.6282 33.5914 36.3384 33.465 36.0485 33.347C36.1678 33.069 36.2787 32.7826 36.3895 32.4961C38.4187 28.5531 41.7951 25.2251 45.9985 23.6412C46.3139 23.5317 46.6379 23.4137 46.9534 23.2957C50.253 23.1525 57.0483 22.8492 57.594 22.8239V21.4254L51.6001 21.1557C52.8194 20.4396 53.9789 19.6139 55.0191 18.6113C57.2529 16.4039 58.9752 13.4888 59.1372 10.3125L57.773 10.2114C57.7389 10.3293 57.7048 10.5147 57.6537 10.6663C57.3211 11.7953 56.784 12.899 56.136 13.8848C54.5587 16.3365 52.1969 18.2069 49.5965 19.5297C49.2895 19.6645 48.4796 20.0352 48.1641 20.1784C47.9936 20.2542 47.7889 20.3301 47.5758 20.4059L47.1495 10.9359H45.7341L45.2737 21.2147C42.3748 22.2847 39.7403 24.0709 37.6428 26.3373C37.7878 22.9503 37.0716 19.5212 35.4943 16.5303C35.247 15.9742 34.8378 15.1907 34.6161 14.6346C34.4967 14.3145 34.1812 13.4804 34.0704 13.1771C33.9596 12.8316 33.7549 12.0481 33.6441 11.6858C33.627 11.6015 33.61 11.5173 33.5929 11.4415C35.8268 9.03184 40.4053 4.07781 40.7719 3.68182L39.7744 2.69607L33.1922 8.64428C33.0387 5.94821 33.5418 3.21001 34.9571 0.884649L33.9169 0C33.4821 0.454962 33.1411 0.91835 32.8171 1.44914C31.5808 3.41222 31.001 5.72915 30.9072 8.02924L24.8792 2.57812L23.8817 3.56387L31.1459 11.4078C31.5893 13.9269 32.5613 16.3197 33.6697 18.5945C33.7805 18.8557 33.9851 19.2685 34.0619 19.5381C35.5028 23.38 35.4175 27.6684 34.1386 31.544C34.0022 31.8305 33.8743 32.117 33.7549 32.4034C33.4736 32.2855 33.1837 32.1759 32.8938 32.0664C28.9036 30.0612 25.5357 26.7248 23.9328 22.5712C23.822 22.2679 23.7112 21.9646 23.6003 21.6613C23.4554 18.3754 23.1484 11.4583 23.1229 10.9359H21.7075L21.4347 17.0527C20.71 15.8394 19.8659 14.6936 18.8513 13.6657C16.6174 11.4583 13.6674 9.75641 10.453 9.59633L10.3507 10.9444C10.4701 10.9781 10.6577 11.0118 10.8111 11.0623C11.9536 11.3909 13.0706 11.9217 14.0681 12.562C16.5492 14.1207 18.442 16.4545 19.7806 19.0242C19.917 19.3275 20.2922 20.1279 20.4371 20.4396C20.5139 20.6081 20.5906 20.8103 20.6673 21.0125L11.2715 21.4254V22.8239C11.7575 22.8492 18.0413 23.1188 21.4773 23.2705C22.5601 26.1351 24.3677 28.7469 26.6612 30.8195C23.2337 30.6762 19.7636 31.384 16.7368 32.9426C16.1741 33.187 15.3811 33.5914 14.8184 33.8104C14.4944 33.9284 13.6503 34.2401 13.3434 34.3496C13.0109 34.4592 12.2606 34.653 11.8769 34.7541C9.464 32.5719 4.15222 27.7611 3.7515 27.4073L2.75394 28.393L9.05475 35.2006C6.22407 35.4112 3.33372 34.931 0.895243 33.4734L0 34.5013C0.460411 34.931 0.929348 35.268 1.46649 35.5882C3.44456 36.8098 5.77219 37.3743 8.09982 37.4754L2.88183 43.1119L3.87939 44.0976C4.24601 43.7691 8.92685 39.5396 11.4591 37.2479C14.0425 36.8182 16.4895 35.8493 18.8257 34.7372C19.09 34.6277 19.5078 34.4255 19.7806 34.3496C23.6685 32.9258 28.0083 33.01 31.9303 34.2738C32.2202 34.4086 32.5101 34.535 32.8 34.653C32.6806 34.931 32.5698 35.2174 32.459 35.5039C30.4297 39.4469 27.0534 42.7749 22.85 44.3588C22.5431 44.4683 22.2276 44.5779 21.9207 44.6958C18.6296 44.8391 11.8087 45.1424 11.263 45.1676V46.5662L17.2654 46.8358C16.0376 47.552 14.8781 48.3861 13.8294 49.3887C11.5955 51.5961 9.87325 54.5112 9.71126 57.6875L11.0754 57.7886C11.1095 57.6707 11.1436 57.4853 11.1948 57.3337C11.5273 56.2047 12.0645 55.101 12.7125 54.1152C14.2898 51.6635 16.6515 49.7931 19.252 48.4703C19.5589 48.3355 20.3689 47.9648 20.6844 47.8216C20.8549 47.7458 21.0595 47.6699 21.2727 47.5941L21.699 57.0556H23.1143L23.5747 46.7853C26.4736 45.7153 29.1082 43.9291 31.2056 41.6627C31.0607 45.0497 31.7769 48.4788 33.3542 51.4697C33.6015 52.0258 34.0107 52.8093 34.2324 53.3654C34.3518 53.6855 34.6672 54.5196 34.7781 54.8229C34.8889 55.1684 35.0935 55.9519 35.2044 56.3142V56.3311C33.0814 58.6227 28.1618 63.939 27.7781 64.3519L28.7757 65.3376L35.6392 59.1367C35.8353 61.9001 35.3408 64.731 33.8913 67.1154L34.9315 68C35.3664 67.545 35.7074 67.0817 36.0314 66.5509C37.2165 64.672 37.7963 62.4646 37.9327 60.2656L43.6793 65.464L44.6769 64.4783L37.7707 57.0304C37.3615 54.3511 36.3554 51.8236 35.1788 49.4139C35.068 49.1528 34.8633 48.7399 34.7866 48.4703C33.3457 44.6284 33.4309 40.34 34.7099 36.4644C34.8463 36.1779 34.9742 35.8915 35.0935 35.605C35.3749 35.723 35.6648 35.8325 35.9547 35.942C39.9449 37.9472 43.3127 41.2836 44.9156 45.4372C45.0265 45.7406 45.1373 46.0523 45.2482 46.3556C45.3931 49.6499 45.7 56.5417 45.7256 57.0641H47.141L47.4138 50.9642C48.1385 52.1774 48.9826 53.3148 49.9972 54.3511C52.2311 56.5585 55.1811 58.2604 58.3954 58.4205L58.4978 57.0725C58.3784 57.0388 58.1908 57.0051 58.0373 56.9545C56.8948 56.6259 55.7779 56.0952 54.7804 55.4548C52.2993 53.8962 50.4065 51.5624 49.0679 48.9927C48.9314 48.6894 48.5563 47.889 48.4113 47.5773C48.3346 47.4087 48.2579 47.2065 48.1811 46.9959L57.5769 46.5831V45.1845C57.0909 45.1592 50.7987 44.8896 47.3626 44.7379C46.2798 41.8734 44.4723 39.27 42.1787 37.1974C45.6063 37.3406 49.0764 36.6329 52.1032 35.0742C52.6659 34.8299 53.4588 34.4255 54.0215 34.2064C54.3455 34.0885 55.1896 33.7767 55.4966 33.6672C55.8461 33.5577 56.6391 33.3555 57.0057 33.2459C57.0739 33.2291 57.1506 33.2122 57.2188 33.1954C59.7255 35.4618 64.7048 39.9693 65.097 40.3231L66.0945 39.3374L60.041 32.7994C62.7864 32.6309 65.583 33.128 67.9447 34.535L68.8399 33.5071C68.3795 33.0774 67.9106 32.7404 67.3734 32.4203C65.3272 31.1565 62.8972 30.592 60.5014 30.5246L60.4929 30.533Z" fill="#F7F7F7"/>
</svg>
